<svg width="20" height="24" viewBox="0 0 20 24" fill="none" xmlns="http://www.w3.org/2000/svg">
<path d="M10 15C11.6569 15 13 13.6569 13 12C13 10.3431 11.6569 9 10 9C8.34315 9 7 10.3431 7 12C7 13.6569 8.34315 15 10 15Z" stroke="white" stroke-width="2" stroke-linecap="round" stroke-linejoin="round"/>
<path d="M19 10C19 17 10 23 10 23C10 23 1 17 1 10C1 7.61305 1.94821 5.32387 3.63604 3.63604C5.32387 1.94821 7.61305 1 10 1C12.3869 1 14.6761 1.94821 16.364 3.63604C18.0518 5.32387 19 7.61305 19 10Z" stroke="white" stroke-width="2" stroke-linecap="round" stroke-linejoin="round"/>
</svg>
